# Blender v3.2.1 OBJ File: ''
# www.blender.org
mtllib enemy.mtl
o EnemyMesh_Cube.002
v -1.414214 0.000014 -0.002649
v -1.414214 0.000014 -0.002649
v -1.414214 0.000014 -0.002649
v -1.414214 0.000014 -0.002649
v 0.759373 0.000007 1.386836
v 0.759373 0.000007 1.386836
v 0.759373 0.000007 1.386836
v 0.759373 0.000007 1.386836
v 1.414214 0.000014 -0.002649
v 1.414214 0.000014 -0.002649
v 1.414214 0.000014 -0.002649
v 1.414214 0.000014 -0.002649
v 0.000000 0.000000 -2.002649
v 0.000000 0.000000 -2.002649
v 0.000000 0.000000 -2.002649
v 0.000000 0.000000 -2.002649
v 0.000000 -1.414214 -0.002649
v 0.000000 -1.414214 -0.002649
v 0.000000 -1.414214 -0.002649
v 0.000000 -1.414214 -0.002649
v 0.000000 1.414214 -0.002649
v 0.000000 1.414214 -0.002649
v 0.000000 1.414214 -0.002649
v 0.000000 1.414214 -0.002649
v 0.000000 0.759373 1.386836
v 0.000000 0.759373 1.386836
v 0.000000 0.759373 1.386836
v 0.000000 0.759373 1.386836
v 0.000000 -0.759373 1.386836
v 0.000000 -0.759373 1.386836
v 0.000000 -0.759373 1.386836
v 0.000000 -0.759373 1.386836
v -0.759373 0.000007 1.386836
v -0.759373 0.000007 1.386836
v -0.759373 0.000007 1.386836
v -0.759373 0.000007 1.386836
v 0.000000 -0.534694 1.128498
v 0.534696 0.000007 1.128498
v 0.000000 0.534698 1.128498
v -0.534696 0.000007 1.128498
v 0.000000 -0.759373 1.128498
v 0.000000 -0.759373 1.128498
v 0.000000 -0.759373 1.128498
v 0.759373 0.000007 1.128498
v 0.759373 0.000007 1.128498
v 0.759373 0.000007 1.128498
v 0.000000 0.759373 1.128498
v 0.000000 0.759373 1.128498
v 0.000000 0.759373 1.128498
v -0.759373 0.000007 1.128498
v -0.759373 0.000007 1.128498
v -0.759373 0.000007 1.128498
v -2.051142 0.423123 0.132240
v -2.051142 0.423123 0.132240
v -2.051142 0.423123 0.132240
v -0.064767 0.868633 0.718657
v -0.064767 0.868633 0.718657
v -0.064767 0.868633 0.718657
v -0.085012 0.800729 0.828646
v -0.085012 0.800729 0.828646
v -0.085012 0.800729 0.828646
v -0.074610 -0.832345 -0.333284
v -0.074610 -0.832345 -0.333284
v -0.074610 -0.832345 -0.333284
v 2.051142 0.423123 0.132240
v 2.051142 0.423123 0.132240
v 2.051142 0.423123 0.132240
v 2.057273 0.402556 0.165553
v 2.057273 0.402556 0.165553
v 2.057273 0.402556 0.165553
v 0.064767 0.868633 0.718657
v 0.064767 0.868633 0.718657
v 0.064767 0.868633 0.718657
v 0.085012 0.800729 0.828646
v 0.085012 0.800729 0.828646
v 0.085012 0.800729 0.828646
v 0.074610 -0.832345 -0.333284
v 0.074610 -0.832345 -0.333284
v 0.074610 -0.832345 -0.333284
v 2.054122 -0.092078 -0.186378
v 2.054122 -0.092078 -0.186378
v 2.054122 -0.092078 -0.186378
v 2.060255 -0.112645 -0.153064
v 2.060255 -0.112645 -0.153064
v 2.060255 -0.112645 -0.153064
v 0.094855 -0.900248 -0.223295
v 0.094855 -0.900248 -0.223295
v 0.094855 -0.900248 -0.223295
v -2.057273 0.402556 0.165553
v -2.057273 0.402556 0.165553
v -2.057273 0.402556 0.165553
v -2.054122 -0.092078 -0.186378
v -2.054122 -0.092078 -0.186378
v -2.054122 -0.092078 -0.186378
v -2.060255 -0.112645 -0.153064
v -2.060255 -0.112645 -0.153064
v -2.060255 -0.112645 -0.153064
v -0.094855 -0.900248 -0.223295
v -0.094855 -0.900248 -0.223295
v -0.094855 -0.900248 -0.223295
v 0.000000 -0.534694 1.128498
v 0.534696 0.000007 1.128498
v 0.000000 0.534698 1.128498
v -0.534696 0.000007 1.128498
vt 0.375000 0.500000
vt 0.375000 0.750000
vt 0.125000 0.750000
vt 0.625000 0.500000
vt 0.625000 0.750000
vt 0.375000 0.750000
vt 0.125000 0.750000
vt 0.375000 0.750000
vt 0.375000 0.750000
vt 0.125000 0.750000
vt 0.375000 0.750000
vt 0.625000 0.750000
vt 0.625000 0.750000
vt 0.375000 0.750000
vt 0.125000 0.500000
vt 0.125000 0.750000
vt 0.375000 0.750000
vt 0.375000 0.500000
vt 0.375000 0.750000
vt 0.625000 0.750000
vt 0.125000 0.750000
vt 0.125000 0.750000
vt 0.375000 0.750000
vt 0.375000 0.750000
vt 0.375000 0.750000
vt 0.375000 0.750000
vt 0.625000 0.750000
vt 0.625000 0.750000
vt 0.375000 1.000000
vt 0.375000 0.750000
vt 0.375000 0.750000
vt 0.375000 1.000000
vt 0.625000 0.750000
vt 0.375000 0.750000
vt 0.375000 0.750000
vt 0.625000 0.750000
vt 0.375000 0.750000
vt 0.375000 1.000000
vt 0.375000 1.000000
vt 0.375000 0.750000
vt 0.375000 0.750000
vt 0.625000 0.750000
vt 0.625000 0.750000
vt 0.375000 0.750000
vt 0.378866 0.753866
vt 0.551098 0.750066
vt 0.625000 0.750000
vt 0.375000 0.750000
vt 0.375066 0.926098
vt 0.375000 1.000000
vt 0.378866 0.753866
vt 0.375000 0.750000
vt 0.375000 0.000000
vt 0.625000 0.000000
vt 0.625000 0.250000
vt 0.375000 0.250000
vt 0.375000 0.250000
vt 0.625000 0.250000
vt 0.625000 0.500000
vt 0.375000 0.500000
vt 0.375000 0.500000
vt 0.625000 0.500000
vt 0.625000 0.750000
vt 0.375000 0.750000
vt 0.375000 0.750000
vt 0.625000 0.750000
vt 0.625000 1.000000
vt 0.375000 1.000000
vt 0.125000 0.500000
vt 0.375000 0.500000
vt 0.375000 0.750000
vt 0.125000 0.750000
vt 0.625000 0.500000
vt 0.875000 0.500000
vt 0.875000 0.750000
vt 0.375000 0.000000
vt 0.375000 0.250000
vt 0.625000 0.250000
vt 0.625000 0.000000
vt 0.375000 0.250000
vt 0.375000 0.500000
vt 0.625000 0.500000
vt 0.625000 0.250000
vt 0.375000 0.500000
vt 0.375000 0.750000
vt 0.625000 0.750000
vt 0.625000 0.500000
vt 0.375000 0.750000
vt 0.375000 1.000000
vt 0.625000 1.000000
vt 0.625000 0.750000
vt 0.125000 0.500000
vt 0.125000 0.750000
vt 0.375000 0.750000
vt 0.375000 0.500000
vt 0.625000 0.500000
vt 0.625000 0.750000
vt 0.875000 0.750000
vt 0.875000 0.500000
vt 0.625000 0.750000
vt 0.378866 0.753866
vt 0.375066 0.926098
vt 0.378866 0.753866
vt 0.551098 0.750066
vn -0.6325 0.6325 -0.4472
vn -0.6325 -0.6325 -0.4472
vn -0.6708 0.6708 0.3162
vn -0.6708 -0.6708 0.3162
vn 0.6325 0.6325 -0.4472
vn 0.6325 -0.6325 -0.4472
vn 0.6708 0.6708 0.3162
vn 0.6708 -0.6708 0.3162
vn 0.7071 -0.7071 0.0000
vn -0.7071 0.7071 0.0000
vn -0.7071 -0.7071 0.0000
vn 0.7071 0.7071 0.0000
vn 0.0000 0.0000 1.0000
vn 0.9879 -0.0855 0.1290
vn 0.9879 -0.0855 0.1291
vn 0.3298 0.7750 0.5391
vn -0.9879 0.0855 -0.1290
vn 0.3205 -0.8313 -0.4542
vn 0.3205 -0.8312 -0.4542
vn -0.1322 -0.5208 0.8434
vn 0.1772 0.5169 -0.8375
vn -0.9879 -0.0855 0.1291
vn -0.9879 -0.0855 0.1290
vn -0.3298 0.7750 0.5391
vn 0.9879 0.0855 -0.1290
vn -0.3205 -0.8312 -0.4542
vn -0.3205 -0.8313 -0.4542
vn 0.1322 -0.5208 0.8434
vn -0.1772 0.5169 -0.8375
usemtl Base
s off
f 15/1/1 1/2/1 23/3/1
f 16/4/2 19/5/2 2/6/2
f 24/7/3 3/8/3 35/9/3
f 24/7/3 35/9/3 27/10/3
f 4/11/4 20/12/4 31/13/4
f 4/11/4 31/13/4 36/14/4
f 14/15/5 22/16/5 12/17/5
f 13/18/6 11/19/6 18/20/6
f 21/21/7 26/22/7 6/23/7
f 21/21/7 6/23/7 10/24/7
f 9/25/8 5/26/8 30/27/8
f 9/25/8 30/27/8 17/28/8
f 25/29/9 34/30/9 51/31/9
f 25/29/9 51/31/9 47/32/9
f 32/33/10 8/34/10 46/35/10
f 32/33/10 46/35/10 43/36/10
f 7/37/11 28/38/11 49/39/11
f 7/37/11 49/39/11 45/40/11
f 33/41/12 29/42/12 41/43/12
f 33/41/12 41/43/12 50/44/12
f 38/45/13 37/46/13 42/47/13
f 38/45/13 42/47/13 44/48/13
f 39/49/13 38/45/13 44/48/13
f 39/49/13 44/48/13 48/50/13
f 37/46/13 40/51/13 52/52/13
f 37/46/13 52/52/13 42/47/13
f 40/51/13 39/49/13 48/50/13
f 40/51/13 48/50/13 52/52/13
usemtl Wing
f 53/53/14 89/54/14 95/55/14
f 53/53/15 95/55/15 92/56/15
f 93/57/16 96/58/16 98/59/16
f 93/57/16 98/59/16 62/60/16
f 64/61/17 100/62/17 61/63/17
f 64/61/17 61/63/17 58/64/17
f 56/65/18 59/66/18 90/67/18
f 56/65/19 90/67/19 54/68/19
f 94/69/20 63/70/20 57/71/20
f 94/69/20 57/71/20 55/72/20
f 99/73/21 97/74/21 91/75/21
f 67/76/22 82/77/22 85/78/22
f 67/76/23 85/78/23 70/79/23
f 81/80/24 79/81/24 88/82/24
f 81/80/24 88/82/24 84/83/24
f 77/84/25 71/85/25 74/86/25
f 77/84/25 74/86/25 86/87/25
f 73/88/26 66/89/26 69/90/26
f 73/88/27 69/90/27 76/91/27
f 80/92/28 65/93/28 72/94/28
f 80/92/28 72/94/28 78/95/28
f 87/96/29 75/97/29 68/98/29
f 87/96/29 68/98/29 83/99/29
s 1
f 99/73/21 91/75/21 60/100/21
usemtl Material.001
s off
f 102/101/13 103/102/13 104/103/13
f 102/101/13 104/103/13 101/104/13
